<?xml version="1.0" encoding="UTF-8" standalone="no"?>
<!DOCTYPE svg PUBLIC "-//W3C//DTD SVG 1.1//EN"
 "http://www.w3.org/Graphics/SVG/1.1/DTD/svg11.dtd">
<!-- Generated by graphviz version 2.26.3 (20100126.1600)
 -->
<!-- Title: models_diagram Pages: 1 -->
<svg width="431pt" height="988pt"
 viewBox="0.00 0.00 430.86 988.00" xmlns="http://www.w3.org/2000/svg" xmlns:xlink="http://www.w3.org/1999/xlink">
<g id="graph1" class="graph" transform="scale(1 1) rotate(0) translate(4 984)">
<title>models_diagram</title>
<polygon fill="white" stroke="white" points="-4,5 -4,-984 427.855,-984 427.855,5 -4,5"/>
<!-- CategoriesCombination -->
<g id="node1" class="node"><title>CategoriesCombination</title>
<polyline fill="none" stroke="black" points="148.5,-1 301.5,-1 "/>
<path fill="none" stroke="black" d="M301.5,-1C307.5,-1 313.5,-7 313.5,-13"/>
<polyline fill="none" stroke="black" points="313.5,-13 313.5,-113 "/>
<path fill="none" stroke="black" d="M313.5,-113C313.5,-119 307.5,-125 301.5,-125"/>
<polyline fill="none" stroke="black" points="301.5,-125 148.5,-125 "/>
<path fill="none" stroke="black" d="M148.5,-125C142.5,-125 136.5,-119 136.5,-113"/>
<polyline fill="none" stroke="black" points="136.5,-113 136.5,-13 "/>
<path fill="none" stroke="black" d="M136.5,-13C136.5,-7 142.5,-1 148.5,-1"/>
<text text-anchor="middle" x="225" y="-108.4" font-family="Times Roman,serif" font-size="14.00">CategoriesCombination</text>
<polyline fill="none" stroke="black" points="136.5,-99 313.5,-99 "/>
<text text-anchor="start" x="144.5" y="-82.4" font-family="Times Roman,serif" font-size="14.00">id :integer</text>
<text text-anchor="start" x="144.5" y="-64.4" font-family="Times Roman,serif" font-size="14.00">category_id :integer</text>
<text text-anchor="start" x="144.5" y="-46.4" font-family="Times Roman,serif" font-size="14.00">course_id :integer</text>
<text text-anchor="start" x="144.5" y="-28.4" font-family="Times Roman,serif" font-size="14.00">created_at :datetime</text>
<text text-anchor="start" x="144.5" y="-10.4" font-family="Times Roman,serif" font-size="14.00">updated_at :datetime</text>
</g>
<!-- Institute -->
<g id="node2" class="node"><title>Institute</title>
<polyline fill="none" stroke="black" points="121.5,-547 262.5,-547 "/>
<path fill="none" stroke="black" d="M262.5,-547C268.5,-547 274.5,-553 274.5,-559"/>
<polyline fill="none" stroke="black" points="274.5,-559 274.5,-659 "/>
<path fill="none" stroke="black" d="M274.5,-659C274.5,-665 268.5,-671 262.5,-671"/>
<polyline fill="none" stroke="black" points="262.5,-671 121.5,-671 "/>
<path fill="none" stroke="black" d="M121.5,-671C115.5,-671 109.5,-665 109.5,-659"/>
<polyline fill="none" stroke="black" points="109.5,-659 109.5,-559 "/>
<path fill="none" stroke="black" d="M109.5,-559C109.5,-553 115.5,-547 121.5,-547"/>
<text text-anchor="middle" x="192" y="-654.4" font-family="Times Roman,serif" font-size="14.00">Institute</text>
<polyline fill="none" stroke="black" points="109.5,-645 274.5,-645 "/>
<text text-anchor="start" x="117.5" y="-628.4" font-family="Times Roman,serif" font-size="14.00">id :integer</text>
<text text-anchor="start" x="117.5" y="-610.4" font-family="Times Roman,serif" font-size="14.00">name :string</text>
<text text-anchor="start" x="117.5" y="-592.4" font-family="Times Roman,serif" font-size="14.00">user_id :integer</text>
<text text-anchor="start" x="117.5" y="-574.4" font-family="Times Roman,serif" font-size="14.00">created_at :datetime</text>
<text text-anchor="start" x="117.5" y="-556.4" font-family="Times Roman,serif" font-size="14.00">updated_at :datetime</text>
</g>
<!-- CategoriesDetail -->
<g id="node4" class="node"><title>CategoriesDetail</title>
<polyline fill="none" stroke="black" points="11.5,-165 152.5,-165 "/>
<path fill="none" stroke="black" d="M152.5,-165C158.5,-165 164.5,-171 164.5,-177"/>
<polyline fill="none" stroke="black" points="164.5,-177 164.5,-331 "/>
<path fill="none" stroke="black" d="M164.5,-331C164.5,-337 158.5,-343 152.5,-343"/>
<polyline fill="none" stroke="black" points="152.5,-343 11.5,-343 "/>
<path fill="none" stroke="black" d="M11.5,-343C5.5,-343 -0.5,-337 -0.5,-331"/>
<polyline fill="none" stroke="black" points="-0.5,-331 -0.5,-177 "/>
<path fill="none" stroke="black" d="M-0.5,-177C-0.5,-171 5.5,-165 11.5,-165"/>
<text text-anchor="middle" x="82" y="-326.4" font-family="Times Roman,serif" font-size="14.00">CategoriesDetail</text>
<polyline fill="none" stroke="black" points="-0.5,-317 164.5,-317 "/>
<text text-anchor="start" x="7.5" y="-300.4" font-family="Times Roman,serif" font-size="14.00">id :integer</text>
<text text-anchor="start" x="7.5" y="-282.4" font-family="Times Roman,serif" font-size="14.00">category_id :integer</text>
<text text-anchor="start" x="7.5" y="-264.4" font-family="Times Roman,serif" font-size="14.00">institute_id :integer</text>
<text text-anchor="start" x="7.5" y="-246.4" font-family="Times Roman,serif" font-size="14.00">duration :float</text>
<text text-anchor="start" x="7.5" y="-228.4" font-family="Times Roman,serif" font-size="14.00">start_date :date</text>
<text text-anchor="start" x="7.5" y="-210.4" font-family="Times Roman,serif" font-size="14.00">end_date :date</text>
<text text-anchor="start" x="7.5" y="-192.4" font-family="Times Roman,serif" font-size="14.00">created_at :datetime</text>
<text text-anchor="start" x="7.5" y="-174.4" font-family="Times Roman,serif" font-size="14.00">updated_at :datetime</text>
</g>
<!-- Institute&#45;&gt;CategoriesDetail -->
<g id="edge4" class="edge"><title>Institute&#45;&gt;CategoriesDetail</title>
<path fill="none" stroke="#303c6a" d="M119.969,-540.36C112.467,-530.19 105.833,-519.305 101,-508 80.3889,-459.791 74.7943,-401.753 74.7275,-353.331"/>
<ellipse fill="none" stroke="#303c6a" cx="122.579" cy="-543.762" rx="4.00002" ry="4.00002"/>
<polygon fill="#303c6a" stroke="#303c6a" points="74.7286,-353.152 79.2937,-343.181 74.7612,-348.152 74.7938,-343.152 74.7938,-343.152 74.7938,-343.152 74.7612,-348.152 70.2939,-343.123 74.7286,-353.152 74.7286,-353.152"/>
</g>
<!-- Category -->
<g id="node5" class="node"><title>Category</title>
<polyline fill="none" stroke="black" points="121.5,-383 262.5,-383 "/>
<path fill="none" stroke="black" d="M262.5,-383C268.5,-383 274.5,-389 274.5,-395"/>
<polyline fill="none" stroke="black" points="274.5,-395 274.5,-495 "/>
<path fill="none" stroke="black" d="M274.5,-495C274.5,-501 268.5,-507 262.5,-507"/>
<polyline fill="none" stroke="black" points="262.5,-507 121.5,-507 "/>
<path fill="none" stroke="black" d="M121.5,-507C115.5,-507 109.5,-501 109.5,-495"/>
<polyline fill="none" stroke="black" points="109.5,-495 109.5,-395 "/>
<path fill="none" stroke="black" d="M109.5,-395C109.5,-389 115.5,-383 121.5,-383"/>
<text text-anchor="middle" x="192" y="-490.4" font-family="Times Roman,serif" font-size="14.00">Category</text>
<polyline fill="none" stroke="black" points="109.5,-481 274.5,-481 "/>
<text text-anchor="start" x="117.5" y="-464.4" font-family="Times Roman,serif" font-size="14.00">id :integer</text>
<text text-anchor="start" x="117.5" y="-446.4" font-family="Times Roman,serif" font-size="14.00">name :string</text>
<text text-anchor="start" x="117.5" y="-428.4" font-family="Times Roman,serif" font-size="14.00">parent_id :integer</text>
<text text-anchor="start" x="117.5" y="-410.4" font-family="Times Roman,serif" font-size="14.00">created_at :datetime</text>
<text text-anchor="start" x="117.5" y="-392.4" font-family="Times Roman,serif" font-size="14.00">updated_at :datetime</text>
</g>
<!-- Institute&#45;&gt;Category -->
<g id="edge2" class="edge"><title>Institute&#45;&gt;Category</title>
<path fill="none" stroke="#e0467f" d="M192,-536.777C192,-530.281 192,-523.701 192,-517.205"/>
<polygon fill="#e0467f" stroke="#e0467f" points="192,-536.999 187.5,-546.999 192,-541.999 192,-546.999 192,-546.999 192,-546.999 192,-541.999 196.5,-546.999 192,-536.999 192,-536.999"/>
<polygon fill="#e0467f" stroke="#e0467f" points="192,-517.089 196.5,-507.089 192,-512.089 192,-507.089 192,-507.089 192,-507.089 192,-512.089 187.5,-507.089 192,-517.089 192,-517.089"/>
</g>
<!-- Course -->
<g id="node6" class="node"><title>Course</title>
<polyline fill="none" stroke="black" points="231.5,-183 372.5,-183 "/>
<path fill="none" stroke="black" d="M372.5,-183C378.5,-183 384.5,-189 384.5,-195"/>
<polyline fill="none" stroke="black" points="384.5,-195 384.5,-313 "/>
<path fill="none" stroke="black" d="M384.5,-313C384.5,-319 378.5,-325 372.5,-325"/>
<polyline fill="none" stroke="black" points="372.5,-325 231.5,-325 "/>
<path fill="none" stroke="black" d="M231.5,-325C225.5,-325 219.5,-319 219.5,-313"/>
<polyline fill="none" stroke="black" points="219.5,-313 219.5,-195 "/>
<path fill="none" stroke="black" d="M219.5,-195C219.5,-189 225.5,-183 231.5,-183"/>
<text text-anchor="middle" x="302" y="-308.4" font-family="Times Roman,serif" font-size="14.00">Course</text>
<polyline fill="none" stroke="black" points="219.5,-299 384.5,-299 "/>
<text text-anchor="start" x="227.5" y="-282.4" font-family="Times Roman,serif" font-size="14.00">id :integer</text>
<text text-anchor="start" x="227.5" y="-264.4" font-family="Times Roman,serif" font-size="14.00">name :string</text>
<text text-anchor="start" x="227.5" y="-246.4" font-family="Times Roman,serif" font-size="14.00">institute_id :integer</text>
<text text-anchor="start" x="227.5" y="-228.4" font-family="Times Roman,serif" font-size="14.00">price :float</text>
<text text-anchor="start" x="227.5" y="-210.4" font-family="Times Roman,serif" font-size="14.00">created_at :datetime</text>
<text text-anchor="start" x="227.5" y="-192.4" font-family="Times Roman,serif" font-size="14.00">updated_at :datetime</text>
</g>
<!-- Institute&#45;&gt;Course -->
<g id="edge6" class="edge"><title>Institute&#45;&gt;Course</title>
<path fill="none" stroke="#80c31f" d="M282.394,-589.923C327.143,-575.427 377.204,-550.447 404,-508 433.893,-460.646 422.486,-434.861 404,-382 398.064,-365.027 388.83,-348.623 378.292,-333.545"/>
<ellipse fill="none" stroke="#80c31f" cx="278.504" cy="-591.141" rx="4.00001" ry="4.00001"/>
<polygon fill="#80c31f" stroke="#80c31f" points="378.189,-333.403 375.957,-322.667 375.252,-329.357 372.315,-325.31 372.315,-325.31 372.315,-325.31 375.252,-329.357 368.673,-327.953 378.189,-333.403 378.189,-333.403"/>
</g>
<!-- User -->
<g id="node3" class="node"><title>User</title>
<polyline fill="none" stroke="black" points="77,-711 307,-711 "/>
<path fill="none" stroke="black" d="M307,-711C313,-711 319,-717 319,-723"/>
<polyline fill="none" stroke="black" points="319,-723 319,-967 "/>
<path fill="none" stroke="black" d="M319,-967C319,-973 313,-979 307,-979"/>
<polyline fill="none" stroke="black" points="307,-979 77,-979 "/>
<path fill="none" stroke="black" d="M77,-979C71,-979 65,-973 65,-967"/>
<polyline fill="none" stroke="black" points="65,-967 65,-723 "/>
<path fill="none" stroke="black" d="M65,-723C65,-717 71,-711 77,-711"/>
<text text-anchor="middle" x="192" y="-962.4" font-family="Times Roman,serif" font-size="14.00">User</text>
<polyline fill="none" stroke="black" points="65,-953 319,-953 "/>
<text text-anchor="start" x="73" y="-936.4" font-family="Times Roman,serif" font-size="14.00">id :integer</text>
<text text-anchor="start" x="73" y="-918.4" font-family="Times Roman,serif" font-size="14.00">email :string</text>
<text text-anchor="start" x="73" y="-900.4" font-family="Times Roman,serif" font-size="14.00">encrypted_password :string</text>
<text text-anchor="start" x="73" y="-882.4" font-family="Times Roman,serif" font-size="14.00">reset_password_token :string</text>
<text text-anchor="start" x="73" y="-864.4" font-family="Times Roman,serif" font-size="14.00">reset_password_sent_at :datetime</text>
<text text-anchor="start" x="73" y="-846.4" font-family="Times Roman,serif" font-size="14.00">remember_created_at :datetime</text>
<text text-anchor="start" x="73" y="-828.4" font-family="Times Roman,serif" font-size="14.00">sign_in_count :integer</text>
<text text-anchor="start" x="73" y="-810.4" font-family="Times Roman,serif" font-size="14.00">current_sign_in_at :datetime</text>
<text text-anchor="start" x="73" y="-792.4" font-family="Times Roman,serif" font-size="14.00">last_sign_in_at :datetime</text>
<text text-anchor="start" x="73" y="-774.4" font-family="Times Roman,serif" font-size="14.00">current_sign_in_ip :string</text>
<text text-anchor="start" x="73" y="-756.4" font-family="Times Roman,serif" font-size="14.00">last_sign_in_ip :string</text>
<text text-anchor="start" x="73" y="-738.4" font-family="Times Roman,serif" font-size="14.00">created_at :datetime</text>
<text text-anchor="start" x="73" y="-720.4" font-family="Times Roman,serif" font-size="14.00">updated_at :datetime</text>
</g>
<!-- User&#45;&gt;Institute -->
<g id="edge8" class="edge"><title>User&#45;&gt;Institute</title>
<path fill="none" stroke="#69b3d6" d="M192,-702.751C192,-695.368 192,-688.118 192,-681.123"/>
<ellipse fill="none" stroke="#69b3d6" cx="192" cy="-706.798" rx="4" ry="4"/>
<polygon fill="#69b3d6" stroke="#69b3d6" points="192,-681.071 196.5,-671.071 192,-676.071 192,-671.071 192,-671.071 192,-671.071 192,-676.071 187.5,-671.071 192,-681.071 192,-681.071"/>
</g>
<!-- Category&#45;&gt;CategoriesCombination -->
<g id="edge16" class="edge"><title>Category&#45;&gt;CategoriesCombination</title>
<path fill="none" stroke="#e7f7f1" d="M195.379,-374.739C198.447,-317.827 203.624,-235.625 211,-164 211.962,-154.655 213.127,-144.845 214.37,-135.163"/>
<ellipse fill="none" stroke="#e7f7f1" cx="195.155" cy="-378.953" rx="4" ry="4"/>
<polygon fill="#e7f7f1" stroke="#e7f7f1" points="214.383,-135.06 220.148,-125.732 215.035,-130.103 215.687,-125.146 215.687,-125.146 215.687,-125.146 215.035,-130.103 211.225,-124.559 214.383,-135.06 214.383,-135.06"/>
</g>
<!-- Category&#45;&gt;CategoriesDetail -->
<g id="edge10" class="edge"><title>Category&#45;&gt;CategoriesDetail</title>
<path fill="none" stroke="#95a970" d="M152.282,-376.036C147.759,-368.182 143.086,-360.068 138.4,-351.931"/>
<ellipse fill="none" stroke="#95a970" cx="154.29" cy="-379.522" rx="4.00002" ry="4.00002"/>
<polygon fill="#95a970" stroke="#95a970" points="138.307,-351.769 137.215,-340.857 135.811,-347.436 133.316,-343.103 133.316,-343.103 133.316,-343.103 135.811,-347.436 129.416,-345.349 138.307,-351.769 138.307,-351.769"/>
</g>
<!-- Category&#45;&gt;Category -->
<g id="edge12" class="edge"><title>Category&#45;&gt;Category</title>
<path fill="none" stroke="#285122" d="M282.62,-455.899C288.466,-453.353 292,-449.72 292,-445 292,-440.793 289.193,-437.45 284.443,-434.97"/>
<ellipse fill="none" stroke="#285122" cx="278.579" cy="-457.18" rx="4.00001" ry="4.00001"/>
<polygon fill="#285122" stroke="#285122" points="284.213,-434.89 276.242,-427.36 279.49,-433.25 274.766,-431.611 274.766,-431.611 274.766,-431.611 279.49,-433.25 273.291,-435.862 284.213,-434.89 284.213,-434.89"/>
<text text-anchor="middle" x="343.5" y="-441.4" font-family="Times Roman,serif" font-size="14.00">sub_categories</text>
</g>
<!-- Category&#45;&gt;Course -->
<g id="edge14" class="edge"><title>Category&#45;&gt;Course</title>
<path fill="none" stroke="#c7c75c" d="M232.756,-374.232C240.3,-361.134 248.226,-347.371 255.915,-334.021"/>
<polygon fill="#c7c75c" stroke="#c7c75c" points="232.705,-374.322 223.814,-380.742 230.209,-378.655 227.714,-382.988 227.714,-382.988 227.714,-382.988 230.209,-378.655 231.613,-385.234 232.705,-374.322 232.705,-374.322"/>
<polygon fill="#c7c75c" stroke="#c7c75c" points="255.935,-333.985 264.825,-327.566 258.43,-329.653 260.926,-325.32 260.926,-325.32 260.926,-325.32 258.43,-329.653 257.026,-323.074 255.935,-333.985 255.935,-333.985"/>
</g>
<!-- Course&#45;&gt;CategoriesCombination -->
<g id="edge18" class="edge"><title>Course&#45;&gt;CategoriesCombination</title>
<path fill="none" stroke="#9f4f60" d="M270.252,-175.249C264.825,-161.786 259.212,-147.864 253.865,-134.6"/>
<ellipse fill="none" stroke="#9f4f60" cx="271.832" cy="-179.169" rx="4.00001" ry="4.00001"/>
<polygon fill="#9f4f60" stroke="#9f4f60" points="253.764,-134.349 254.198,-123.392 251.894,-129.711 250.025,-125.074 250.025,-125.074 250.025,-125.074 251.894,-129.711 245.851,-126.757 253.764,-134.349 253.764,-134.349"/>
</g>
</g>
</svg>
